<svg id="visual" viewBox="0 0 960 300" width="960" height="300" xmlns="http://www.w3.org/2000/svg" xmlns:xlink="http://www.w3.org/1999/xlink" version="1.1"><rect x="0" y="0" width="960" height="300" fill="#001220"></rect><path d="M0 141L22.8 140.2C45.7 139.3 91.3 137.7 137 139.3C182.7 141 228.3 146 274 144C319.7 142 365.3 133 411.2 135.2C457 137.3 503 150.7 548.8 147.7C594.7 144.7 640.3 125.3 686 124.8C731.7 124.3 777.3 142.7 823 145.5C868.7 148.3 914.3 135.7 937.2 129.3L960 123L960 301L937.2 301C914.3 301 868.7 301 823 301C777.3 301 731.7 301 686 301C640.3 301 594.7 301 548.8 301C503 301 457 301 411.2 301C365.3 301 319.7 301 274 301C228.3 301 182.7 301 137 301C91.3 301 45.7 301 22.8 301L0 301Z" fill="#74a8fc"></path><path d="M0 167L22.8 167.2C45.7 167.3 91.3 167.7 137 169.7C182.7 171.7 228.3 175.3 274 179.8C319.7 184.3 365.3 189.7 411.2 185.2C457 180.7 503 166.3 548.8 162.2C594.7 158 640.3 164 686 163.5C731.7 163 777.3 156 823 153.2C868.7 150.3 914.3 151.7 937.2 152.3L960 153L960 301L937.2 301C914.3 301 868.7 301 823 301C777.3 301 731.7 301 686 301C640.3 301 594.7 301 548.8 301C503 301 457 301 411.2 301C365.3 301 319.7 301 274 301C228.3 301 182.7 301 137 301C91.3 301 45.7 301 22.8 301L0 301Z" fill="#649dfa"></path><path d="M0 194L22.8 196.3C45.7 198.7 91.3 203.3 137 207.7C182.7 212 228.3 216 274 214.3C319.7 212.7 365.3 205.3 411.2 201.5C457 197.7 503 197.3 548.8 203.5C594.7 209.7 640.3 222.3 686 222.7C731.7 223 777.3 211 823 206C868.7 201 914.3 203 937.2 204L960 205L960 301L937.2 301C914.3 301 868.7 301 823 301C777.3 301 731.7 301 686 301C640.3 301 594.7 301 548.8 301C503 301 457 301 411.2 301C365.3 301 319.7 301 274 301C228.3 301 182.7 301 137 301C91.3 301 45.7 301 22.8 301L0 301Z" fill="#5492f8"></path><path d="M0 262L22.8 261.3C45.7 260.7 91.3 259.3 137 254.5C182.7 249.7 228.3 241.3 274 243.3C319.7 245.3 365.3 257.7 411.2 263.5C457 269.3 503 268.7 548.8 267.7C594.7 266.7 640.3 265.3 686 260.8C731.7 256.3 777.3 248.7 823 246.5C868.7 244.3 914.3 247.7 937.2 249.3L960 251L960 301L937.2 301C914.3 301 868.7 301 823 301C777.3 301 731.7 301 686 301C640.3 301 594.7 301 548.8 301C503 301 457 301 411.2 301C365.3 301 319.7 301 274 301C228.3 301 182.7 301 137 301C91.3 301 45.7 301 22.8 301L0 301Z" fill="#4287f5"></path></svg>